<svg xmlns="http://www.w3.org/2000/svg" version="1.1" xmlnsXlink="http://www.w3.org/1999/xlink" xmlnsSvgjs="http://svgjs.dev/svgjs" width="1000" height="623" viewBox="0 0 1000 623"><g transform="matrix(1,0,0,1,-0.6060606060606233,0.2522267206477409)"><svg viewBox="0 0 396 247" data-background-color="#ffffff" preserveAspectRatio="xMidYMid meet" height="623" width="1000" xmlns="http://www.w3.org/2000/svg" xmlnsXlink="http://www.w3.org/1999/xlink"><defs></defs><g id="tight-bounds" transform="matrix(1,0,0,1,0.2400000000000091,-0.09999999999999432)"><svg viewBox="0 0 395.52 247.2" height="247.2" width="395.52"><g><svg></svg></g><g><svg viewBox="0 0 395.52 247.2" height="247.2" width="395.52"><g transform="matrix(1,0,0,1,75.54432,103.83722627576729)"><svg viewBox="0 0 244.43135999999998 39.52554744846541" height="39.52554744846541" width="244.43135999999998"><g><svg viewBox="0 0 244.43135999999998 39.52554744846541" height="39.52554744846541" width="244.43135999999998"><g><svg viewBox="0 0 244.43135999999998 39.52554744846541" height="39.52554744846541" width="244.43135999999998"><g><svg viewBox="0 0 244.43135999999998 39.52554744846541" height="39.52554744846541" width="244.43135999999998"><g><svg viewBox="0 0 244.43135999999998 39.52554744846541" height="39.52554744846541" width="244.43135999999998"><g><svg viewBox="0 0 244.43135999999998 39.52554744846541" height="39.52554744846541" width="244.43135999999998"><g transform="matrix(1,0,0,1,0,0)"><svg width="244.43135999999998" viewBox="4.050000190734863 -34.54999923706055 218.27999877929688 35.29999923706055" height="39.52554744846541" data-palette-color="#233565"><path d="M12.55-34.55Q20.6-34.55 25.43-30.9 30.25-27.25 30.25-17.45L30.25-17.45Q30.25-7.85 25.5-3.93 20.75 0 13.45 0L13.45 0 4.05 0 4.05-34.55 12.55-34.55ZM13.7-29.6L10.65-29.6 10.65-4.95 13.9-4.95Q18.3-4.95 20.8-7.68 23.3-10.4 23.3-17.45L23.3-17.45Q23.3-22.35 22.03-25.03 20.75-27.7 18.68-28.65 16.6-29.6 13.7-29.6L13.7-29.6ZM55.8-7Q55.8-5.45 56.27-4.73 56.75-4 57.8-3.6L57.8-3.6 56.45 0.65Q54.2 0.45 52.77-0.45 51.35-1.35 50.6-3.2L50.6-3.2Q49.25-1.2 47.22-0.23 45.2 0.75 42.7 0.75L42.7 0.75Q38.75 0.75 36.45-1.5 34.15-3.75 34.15-7.4L34.15-7.4Q34.15-11.7 37.27-13.98 40.4-16.25 46.2-16.25L46.2-16.25 49.5-16.25 49.5-17.75Q49.5-20.3 48.32-21.33 47.15-22.35 44.55-22.35L44.55-22.35Q41.65-22.35 37.55-20.95L37.55-20.95 36.05-25.3Q41-27.2 45.65-27.2L45.65-27.2Q55.8-27.2 55.8-18.1L55.8-18.1 55.8-7ZM44.4-3.9Q47.65-3.9 49.5-7.15L49.5-7.15 49.5-12.5 46.85-12.5Q40.65-12.5 40.65-7.9L40.65-7.9Q40.65-6 41.6-4.95 42.55-3.9 44.4-3.9L44.4-3.9ZM76.45-5.35L78.7-1.25Q77.3-0.25 75.57 0.25 73.85 0.75 72.05 0.75L72.05 0.75Q68.15 0.7 66.12-1.48 64.1-3.65 64.1-7.9L64.1-7.9 64.1-21.85 59.95-21.85 59.95-26.45 64.1-26.45 64.1-32.3 70.5-33.05 70.5-26.45 76.65-26.45 76-21.85 70.5-21.85 70.5-8.05Q70.5-6.1 71.17-5.25 71.85-4.4 73.3-4.4L73.3-4.4Q74.75-4.4 76.45-5.35L76.45-5.35ZM101.84-7Q101.84-5.45 102.32-4.73 102.79-4 103.84-3.6L103.84-3.6 102.49 0.65Q100.24 0.45 98.82-0.45 97.39-1.35 96.64-3.2L96.64-3.2Q95.29-1.2 93.27-0.23 91.24 0.75 88.74 0.75L88.74 0.75Q84.79 0.75 82.49-1.5 80.19-3.75 80.19-7.4L80.19-7.4Q80.19-11.7 83.32-13.98 86.44-16.25 92.24-16.25L92.24-16.25 95.54-16.25 95.54-17.75Q95.54-20.3 94.37-21.33 93.19-22.35 90.59-22.35L90.59-22.35Q87.69-22.35 83.59-20.95L83.59-20.95 82.09-25.3Q87.04-27.2 91.69-27.2L91.69-27.2Q101.84-27.2 101.84-18.1L101.84-18.1 101.84-7ZM90.44-3.9Q93.69-3.9 95.54-7.15L95.54-7.15 95.54-12.5 92.89-12.5Q86.69-12.5 86.69-7.9L86.69-7.9Q86.69-6 87.64-4.95 88.59-3.9 90.44-3.9L90.44-3.9ZM127.39-34.55L134.14-34.55 123.89 0 116.04 0 105.49-34.55 112.59-34.55 120.09-5.85 127.39-34.55ZM137.99-34.55L144.59-34.55 144.59 0 137.99 0 137.99-34.55ZM151.44-34.55L173.44-34.55 173.44-29.45 157.48-5.4 173.58-5.4 172.88 0 149.78 0 149.78-5.05 166.03-29.3 151.44-29.3 151.44-34.55ZM200.88-13.85Q200.88-13.35 200.73-11.25L200.73-11.25 184.13-11.25Q184.43-7.4 186.13-5.75 187.83-4.1 190.63-4.1L190.63-4.1Q192.38-4.1 193.93-4.67 195.48-5.25 197.23-6.45L197.23-6.45 199.88-2.8Q195.48 0.75 190.08 0.75L190.08 0.75Q184.03 0.75 180.76-2.95 177.48-6.65 177.48-13.05L177.48-13.05Q177.48-17.1 178.88-20.33 180.28-23.55 182.93-25.38 185.58-27.2 189.23-27.2L189.23-27.2Q194.78-27.2 197.83-23.68 200.88-20.15 200.88-13.85L200.88-13.85ZM194.53-15.4L194.53-15.7Q194.53-22.65 189.38-22.65L189.38-22.65Q187.03-22.65 185.71-20.93 184.38-19.2 184.13-15.4L184.13-15.4 194.53-15.4ZM219.68-27.15Q221.13-27.15 222.33-26.8L222.33-26.8 221.23-20.6Q220.03-20.9 218.88-20.9L218.88-20.9Q216.53-20.9 215.18-19.23 213.83-17.55 213.03-14.1L213.03-14.1 213.03 0 206.63 0 206.63-26.45 212.18-26.45 212.78-21.25Q213.73-24.1 215.53-25.63 217.33-27.15 219.68-27.15L219.68-27.15Z" opacity="1" transform="matrix(1,0,0,1,0,0)" fill="#233565" class="undefined-text-0" data-fill-palette-color="primary" id="text-0"></path></svg></g></svg></g></svg></g></svg></g></svg></g></svg></g></svg></g><path d="M183.202 97.837L183.202 35.422 6.846 35.422 6.846 211.778 183.202 211.778 183.202 149.363 179.638 149.363 179.638 208.214 10.41 208.214 10.41 38.986 179.638 38.986 179.638 97.837Z" fill="#233565" stroke="transparent" data-fill-palette-color="primary"></path></svg></g></svg><rect width="395.52" height="247.2" fill="none" stroke="none" visibility="hidden"></rect></g></svg></g></svg>